<svg xmlns="http://www.w3.org/2000/svg" width="215.654" height="177.637" viewBox="0 0 215.654 177.637">
  <g id="bank_logo" data-name="bank logo" transform="translate(0 -7.545)">
    <rect id="Rectangle_1" data-name="Rectangle 1" width="11.438" height="11.438" transform="matrix(0.998, 0.063, -0.063, 0.998, 101.307, 37.771)" fill="rgba(125,73,168,0.75)"/>
    <rect id="Rectangle_2" data-name="Rectangle 2" width="11.438" height="11.438" transform="matrix(0.998, 0.063, -0.063, 0.998, 101.307, 37.771)" fill="rgba(125,73,168,0.75)"/>
    <rect id="Rectangle_3" data-name="Rectangle 3" width="10.008" height="9.293" transform="matrix(0.998, 0.063, -0.063, 0.998, 112.926, 80.763)" fill="rgba(125,73,168,0.75)"/>
    <rect id="Rectangle_4" data-name="Rectangle 4" width="10.008" height="9.293" transform="matrix(0.998, 0.063, -0.063, 0.998, 112.926, 80.763)" fill="rgba(125,73,168,0.75)"/>
    <rect id="Rectangle_5" data-name="Rectangle 5" width="10.008" height="9.293" transform="matrix(0.998, 0.063, -0.063, 0.998, 167.097, 96.35)" fill="rgba(125,73,168,0.75)"/>
    <rect id="Rectangle_6" data-name="Rectangle 6" width="10.008" height="9.293" transform="matrix(0.998, 0.063, -0.063, 0.998, 167.097, 96.35)" fill="rgba(125,73,168,0.75)"/>
    <rect id="Rectangle_7" data-name="Rectangle 7" width="11.438" height="11.438" transform="matrix(0.998, 0.063, -0.063, 0.998, 124.132, 50.669)" fill="rgba(125,73,168,0.75)"/>
    <rect id="Rectangle_8" data-name="Rectangle 8" width="11.438" height="11.438" transform="matrix(0.998, 0.063, -0.063, 0.998, 124.132, 50.669)" fill="rgba(125,73,168,0.75)"/>
    <rect id="Rectangle_9" data-name="Rectangle 9" width="11.438" height="11.438" transform="matrix(0.998, 0.063, -0.063, 0.998, 89.566, 70.966)" fill="rgba(125,73,168,0.75)"/>
    <rect id="Rectangle_10" data-name="Rectangle 10" width="11.438" height="11.438" transform="matrix(0.998, 0.063, -0.063, 0.998, 89.566, 70.966)" fill="rgba(125,73,168,0.75)"/>
    <rect id="Rectangle_11" data-name="Rectangle 11" width="6.288" height="5.856" transform="matrix(0.998, 0.063, -0.063, 0.998, 144.634, 91.127)" fill="rgba(125,73,168,0.75)"/>
    <rect id="Rectangle_12" data-name="Rectangle 12" width="6.288" height="5.856" transform="matrix(0.998, 0.063, -0.063, 0.998, 144.634, 91.127)" fill="rgba(125,73,168,0.75)"/>
    <rect id="Rectangle_13" data-name="Rectangle 13" width="9.293" height="9.293" transform="matrix(0.998, 0.063, -0.063, 0.998, 127.755, 27.26)" fill="rgba(125,73,168,0.75)"/>
    <rect id="Rectangle_14" data-name="Rectangle 14" width="9.293" height="9.293" transform="matrix(0.998, 0.063, -0.063, 0.998, 127.755, 27.26)" fill="rgba(125,73,168,0.75)"/>
    <rect id="Rectangle_15" data-name="Rectangle 15" width="7.863" height="7.863" transform="matrix(0.998, 0.063, -0.063, 0.998, 137.857, 71.588)" fill="rgba(125,73,168,0.75)"/>
    <rect id="Rectangle_16" data-name="Rectangle 16" width="7.863" height="7.863" transform="matrix(0.998, 0.063, -0.063, 0.998, 137.857, 71.588)" fill="rgba(125,73,168,0.75)"/>
    <rect id="Rectangle_17" data-name="Rectangle 17" width="7.863" height="7.863" transform="matrix(0.998, 0.063, -0.063, 0.998, 167.821, 73.475)" fill="rgba(125,73,168,0.75)"/>
    <rect id="Rectangle_18" data-name="Rectangle 18" width="7.863" height="7.863" transform="matrix(0.998, 0.063, -0.063, 0.998, 167.821, 73.475)" fill="rgba(125,73,168,0.75)"/>
    <rect id="Rectangle_19" data-name="Rectangle 19" width="5.719" height="5.719" transform="matrix(0.998, 0.063, -0.063, 0.998, 155.753, 37.618)" fill="rgba(125,73,168,0.75)"/>
    <rect id="Rectangle_20" data-name="Rectangle 20" width="5.719" height="5.719" transform="matrix(0.998, 0.063, -0.063, 0.998, 155.753, 37.618)" fill="rgba(125,73,168,0.75)"/>
    <rect id="Rectangle_21" data-name="Rectangle 21" width="2.859" height="2.859" transform="matrix(-0.998, -0.063, 0.063, -0.998, 161.961, 18.669)" fill="rgba(125,73,168,0.75)"/>
    <rect id="Rectangle_22" data-name="Rectangle 22" width="2.859" height="2.859" transform="matrix(-0.998, -0.063, 0.063, -0.998, 161.961, 18.669)" fill="rgba(125,73,168,0.75)"/>
    <rect id="Rectangle_23" data-name="Rectangle 23" width="2.859" height="2.859" transform="matrix(-0.998, -0.063, 0.063, -0.998, 92.131, 58.815)" fill="rgba(125,73,168,0.75)"/>
    <rect id="Rectangle_24" data-name="Rectangle 24" width="2.859" height="2.859" transform="matrix(-0.998, -0.063, 0.063, -0.998, 92.131, 58.815)" fill="rgba(125,73,168,0.75)"/>
    <rect id="Rectangle_25" data-name="Rectangle 25" width="5.719" height="5.719" transform="matrix(0.998, 0.063, -0.063, 0.998, 173.061, 24.382)" fill="rgba(125,73,168,0.75)"/>
    <rect id="Rectangle_26" data-name="Rectangle 26" width="5.719" height="5.719" transform="matrix(0.998, 0.063, -0.063, 0.998, 173.061, 24.382)" fill="rgba(125,73,168,0.75)"/>
    <rect id="Rectangle_27" data-name="Rectangle 27" width="5.719" height="5.719" transform="matrix(0.998, 0.063, -0.063, 0.998, 203.913, 34.92)" fill="rgba(125,73,168,0.75)"/>
    <rect id="Rectangle_28" data-name="Rectangle 28" width="5.719" height="5.719" transform="matrix(0.998, 0.063, -0.063, 0.998, 203.913, 34.92)" fill="rgba(125,73,168,0.75)"/>
    <rect id="Rectangle_29" data-name="Rectangle 29" width="2.859" height="2.859" transform="matrix(0.998, 0.063, -0.063, 0.998, 179.915, 52.032)" fill="rgba(125,73,168,0.75)"/>
    <rect id="Rectangle_30" data-name="Rectangle 30" width="2.859" height="2.859" transform="matrix(0.998, 0.063, -0.063, 0.998, 179.915, 52.032)" fill="rgba(125,73,168,0.75)"/>
    <rect id="Rectangle_31" data-name="Rectangle 31" width="2.859" height="2.859" transform="matrix(0.998, 0.063, -0.063, 0.998, 186.146, 78.21)" fill="rgba(125,73,168,0.75)"/>
    <rect id="Rectangle_32" data-name="Rectangle 32" width="2.859" height="2.859" transform="matrix(0.998, 0.063, -0.063, 0.998, 186.146, 78.21)" fill="rgba(125,73,168,0.75)"/>
    <rect id="Rectangle_33" data-name="Rectangle 33" width="2.859" height="2.859" transform="matrix(0.998, 0.063, -0.063, 0.998, 191.93, 9.096)" fill="rgba(125,73,168,0.75)"/>
    <rect id="Rectangle_34" data-name="Rectangle 34" width="2.859" height="2.859" transform="matrix(0.998, 0.063, -0.063, 0.998, 191.93, 9.096)" fill="rgba(125,73,168,0.75)"/>
    <rect id="Rectangle_35" data-name="Rectangle 35" width="2.859" height="2.859" transform="matrix(0.998, 0.063, -0.063, 0.998, 192.144, 28.449)" fill="rgba(125,73,168,0.75)"/>
    <rect id="Rectangle_36" data-name="Rectangle 36" width="2.859" height="2.859" transform="matrix(0.998, 0.063, -0.063, 0.998, 192.144, 28.449)" fill="rgba(125,73,168,0.75)"/>
    <rect id="Rectangle_37" data-name="Rectangle 37" width="2.859" height="2.859" transform="matrix(0.998, 0.063, -0.063, 0.998, 212.8, 7.545)" fill="rgba(125,73,168,0.75)"/>
    <rect id="Rectangle_38" data-name="Rectangle 38" width="2.859" height="2.859" transform="matrix(0.998, 0.063, -0.063, 0.998, 212.8, 7.545)" fill="rgba(125,73,168,0.75)"/>
    <rect id="Rectangle_39" data-name="Rectangle 39" width="7.149" height="7.149" transform="matrix(0.998, 0.063, -0.063, 0.998, 154.315, 60.448)" fill="rgba(125,73,168,0.75)"/>
    <rect id="Rectangle_40" data-name="Rectangle 40" width="7.149" height="7.149" transform="matrix(0.998, 0.063, -0.063, 0.998, 154.315, 60.448)" fill="rgba(125,73,168,0.75)"/>
    <rect id="Rectangle_41" data-name="Rectangle 41" width="7.149" height="7.149" transform="matrix(0.998, 0.063, -0.063, 0.998, 193.291, 55.739)" fill="rgba(125,73,168,0.75)"/>
    <rect id="Rectangle_42" data-name="Rectangle 42" width="7.149" height="7.149" transform="matrix(0.998, 0.063, -0.063, 0.998, 193.291, 55.739)" fill="rgba(125,73,168,0.75)"/>
    <path id="Path_1" data-name="Path 1" d="M105.277,70.75H76.964q-5.313,0-5.312,3.906a3.585,3.585,0,0,0,1.563,3.125,14.564,14.564,0,0,0,4.219,1.875,4.273,4.273,0,0,1,2.969,2.5q.781,1.719.781,6.563v95.312h33.906q19.688,0,29.375-8.593,9.688-8.751,9.688-22.969,0-12.187-6.094-19.688T134,123.25q5.625-2.031,10.312-8.594a25.072,25.072,0,0,0,4.241-9.875H131.435q-.991,6.071-4.627,9.25-5,4.375-13.75,4.375H97.746V87.469q0-5.625,6.25-5.625h1.281ZM42.746,140.594a17.926,17.926,0,0,1,5.781,11.875q.625,8.282-4.219,13.906-4.844,5.469-14.375,6.094a28.561,28.561,0,0,1-9.531-1.094,55.353,55.353,0,0,1-8.594-3.281q-4.063-2.344-7.031-1.563a6.108,6.108,0,0,0-4.063,3.438A6.8,6.8,0,0,0,.4,175.281,9.424,9.424,0,0,0,4.308,179.5a34.908,34.908,0,0,0,11.875,4.531,58.968,58.968,0,0,0,13.906,1.094q17.656-.781,26.719-10a30.7,30.7,0,0,0,9.062-22.344A28.865,28.865,0,0,0,59.777,134.5q-6.094-7.968-18.125-14.531-12.187-6.562-17.969-11.719-5.625-5.312-5.625-12.187,0-7.5,4.844-11.719a15.835,15.835,0,0,1,10.625-4.219,47.9,47.9,0,0,1,11.563,1.563,88.425,88.425,0,0,1,14.531,5.156V72.781q-6.875-1.875-12.5-2.969a72.915,72.915,0,0,0-13.906-1.094q-14.688,0-23.437,7.656A25.154,25.154,0,0,0,.871,95.438Q.4,107.312,7.121,115.281q6.719,7.813,19.219,14.063Q37.589,135.281,42.746,140.594Zm61.406,32.344q-6.406,0-6.406-5.625V129.969h15.625q10.313,0,16.875,5.469,6.563,5.312,6.562,17.031,0,10-7.031,15.312-6.874,5.157-17.5,5.157Z" fill="rgba(125,73,168,0.75)" fill-rule="evenodd"/>
  </g>
</svg>
