<?xml version="1.0" encoding="iso-8859-1"?>
<!-- Generator: Adobe Illustrator 19.0.0, SVG Export Plug-In . SVG Version: 6.00 Build 0)  -->
<svg version="1.1" id="Capa_1" xmlns="http://www.w3.org/2000/svg" xmlns:xlink="http://www.w3.org/1999/xlink" x="0px" y="0px"
	 viewBox="0 0 480.072 480.072" style="enable-background:new 0 0 480.072 480.072;" xml:space="preserve">
<g>
	<path style="fill:#006DF0;" d="M136.036,344.072h-128v96h64h64V344.072z"/>
	<path style="fill:#006DF0;" d="M304.036,344.072h-128v96h64h64V344.072z"/>
	<path style="fill:#006DF0;" d="M344.036,440.072h64h64v-96h-128V440.072z"/>
</g>
<g>
	<path style="fill:#78B9EB;" d="M406.996,58.952h-0.064c6.195,19.776,9.266,40.397,9.104,61.12h56
		c0.024-27.553-10.149-54.141-28.56-74.64C432.005,51.616,419.726,56.166,406.996,58.952z"/>
	<path style="fill:#78B9EB;" d="M267.716,120.072c2.824,4.86,4.314,10.379,4.32,16v32h24v18.08c5.586-1.959,11.275-3.615,17.04-4.96
		h0.064c-6.195-19.776-9.266-40.397-9.104-61.12c-0.16-20.717,2.911-41.333,9.104-61.104h-0.064
		c-12.73-2.786-25.009-7.337-36.48-13.52c-14.994,16.758-24.609,37.633-27.6,59.92c5.165,1.505,9.869,4.284,13.68,8.08
		C264.623,115.44,266.315,117.665,267.716,120.072L267.716,120.072z"/>
	<path style="fill:#78B9EB;" d="M406.932,181.176h0.064c12.73,2.786,25.009,7.337,36.48,13.52
		c18.407-20.495,28.58-47.076,28.56-74.624h-56C416.197,140.79,413.125,161.406,406.932,181.176z"/>
	<path style="fill:#78B9EB;" d="M304.036,120.072c-0.16,20.717,2.911,41.333,9.104,61.104c15.394-3.439,31.123-5.151,46.896-5.104
		v-56H304.036z"/>
	<path style="fill:#78B9EB;" d="M360.036,120.072h56c0.16-20.717-2.911-41.333-9.104-61.104
		c-15.394,3.439-31.123,5.151-46.896,5.104V120.072z"/>
	<path style="fill:#78B9EB;" d="M360.036,176.072c15.773-0.047,31.502,1.665,46.896,5.104c6.193-19.771,9.264-40.387,9.104-61.104
		h-56V176.072z"/>
	<path style="fill:#78B9EB;" d="M360.036,64.072c-15.773,0.047-31.502-1.665-46.896-5.104c-6.193,19.771-9.264,40.387-9.104,61.104
		h56V64.072z"/>
	<path style="fill:#78B9EB;" d="M313.14,181.176h-0.064c-5.765,1.345-11.454,3.001-17.04,4.96v25.76
		c18.747,13.155,41.098,20.202,64,20.176C340.388,232.072,323.132,211.8,313.14,181.176z"/>
	<path style="fill:#78B9EB;" d="M406.932,181.176c-9.992,30.624-27.248,50.896-46.896,50.896
		c31.874,0.042,62.243-13.555,83.44-37.36c-11.471-6.183-23.75-10.734-36.48-13.52L406.932,181.176z"/>
	<path style="fill:#78B9EB;" d="M313.14,181.176c9.992,30.624,27.248,50.896,46.896,50.896v-56
		C344.263,176.025,328.534,177.737,313.14,181.176z"/>
	<path style="fill:#78B9EB;" d="M406.932,181.176c-15.394-3.439-31.123-5.151-46.896-5.104v56
		C379.684,232.072,396.94,211.8,406.932,181.176z"/>
	<path style="fill:#78B9EB;" d="M313.14,58.968c9.992-30.624,27.248-50.896,46.896-50.896c-31.874-0.042-62.243,13.555-83.44,37.36
		c11.471,6.183,23.75,10.734,36.48,13.52L313.14,58.968z"/>
	<path style="fill:#78B9EB;" d="M406.932,58.968h0.064c12.73-2.786,25.009-7.337,36.48-13.52
		c-21.194-23.81-51.563-37.414-83.44-37.376C379.684,8.072,396.94,28.344,406.932,58.968z"/>
	<path style="fill:#78B9EB;" d="M406.932,58.968c-9.992-30.624-27.248-50.896-46.896-50.896v56
		C375.809,64.12,391.539,62.408,406.932,58.968z"/>
	<path style="fill:#78B9EB;" d="M313.14,58.968c15.394,3.439,31.123,5.151,46.896,5.104v-56
		C340.388,8.072,323.132,28.344,313.14,58.968z"/>
</g>
<path style="fill:#FFDA44;" d="M296.036,168.072h-112v96h112V168.072z"/>
<g>
	<path style="fill:#231F20;" d="M240.036,240.072c-4.418,0-8-3.582-8-8v-32c0-4.418,3.582-8,8-8s8,3.582,8,8v32
		C248.036,236.491,244.454,240.072,240.036,240.072z"/>
	<path style="fill:#231F20;" d="M0.036,344.072v96c0,4.418,3.582,8,8,8h56v16h-24c-4.418,0-8,3.582-8,8s3.582,8,8,8h64
		c4.418,0,8-3.582,8-8s-3.582-8-8-8h-24v-16h56c4.418,0,8-3.582,8-8v-96c0-4.418-3.582-8-8-8h-128
		C3.618,336.072,0.036,339.654,0.036,344.072z M16.036,352.072h112v80h-112V352.072z"/>
	<path style="fill:#231F20;" d="M168.036,344.072v96c0,4.418,3.582,8,8,8h56v16h-24c-4.418,0-8,3.582-8,8s3.582,8,8,8h64
		c4.418,0,8-3.582,8-8s-3.582-8-8-8h-24v-16h56c4.418,0,8-3.582,8-8v-96c0-4.418-3.582-8-8-8h-128
		C171.618,336.072,168.036,339.654,168.036,344.072z M184.036,352.072h112v80h-112V352.072z"/>
	<path style="fill:#231F20;" d="M472.036,336.072h-128c-4.418,0-8,3.582-8,8v96c0,4.418,3.582,8,8,8h56v16h-24c-4.418,0-8,3.582-8,8
		s3.582,8,8,8h64c4.418,0,8-3.582,8-8s-3.582-8-8-8h-24v-16h56c4.418,0,8-3.582,8-8v-96
		C480.036,339.654,476.454,336.072,472.036,336.072z M464.036,432.072h-112v-80h112V432.072z"/>
	<path style="fill:#231F20;" d="M416.036,328.072v-24c0-4.418-3.582-8-8-8h-160v-16c0-4.418-3.582-8-8-8s-8,3.582-8,8v16h-160
		c-4.418,0-8,3.582-8,8v24c0,4.418,3.582,8,8,8s8-3.582,8-8v-16h152v16c0,4.418,3.582,8,8,8s8-3.582,8-8v-16h152v16
		c0,4.418,3.582,8,8,8S416.036,332.491,416.036,328.072z"/>
	<path style="fill:#231F20;" d="M480.036,120.072C480.076,53.798,426.383,0.04,360.108,0
		c-60.232-0.036-111.158,44.583-119.04,104.296c-0.522,3.917,1.895,7.629,5.688,8.736c3.821,1.107,7.307,3.147,10.144,5.936
		c1.503,1.528,2.807,3.24,3.88,5.096c2.131,3.643,3.255,7.787,3.256,12.008v32c0,4.418,3.582,8,8,8h16v35.84
		c-0.003,2.612,1.269,5.061,3.408,6.56c45.847,31.829,107.567,27.933,149.048-9.408c3.144-2.834,6.132-5.836,8.952-8.992
		C469.153,178.087,480.047,149.598,480.036,120.072L480.036,120.072z M441.38,184.68c-7.892-3.774-16.106-6.834-24.544-9.144
		c4.156-15.498,6.502-31.426,6.992-47.464h39.84C462.066,148.746,454.303,168.464,441.38,184.68z M429.188,197.672
		c-0.384,0.344-0.8,0.648-1.184,0.984c-2.6,2.232-5.288,4.352-8.08,6.312c-0.36,0.256-0.728,0.496-1.088,0.744
		c-6.393,4.361-13.245,8.01-20.432,10.88c5.574-7.972,10.111-16.62,13.504-25.736c6.129,1.625,12.14,3.664,17.992,6.104
		C429.636,197.168,429.436,197.432,429.188,197.672z M323.78,187.272c9.34-1.633,18.781-2.622,28.256-2.96v38.08
		C341.476,218.16,331.236,205.736,323.78,187.272z M312.236,128.072h39.8v40.232c-11.209,0.369-22.374,1.586-33.4,3.64
		C314.814,157.617,312.666,142.895,312.236,128.072L312.236,128.072z M352.036,112.072h-39.8c0.41-14.824,2.533-29.552,6.328-43.888
		c11.046,2.086,22.237,3.314,33.472,3.672V112.072z M368.036,184.312c9.475,0.326,18.916,1.304,28.256,2.928
		c-7.456,18.496-17.696,30.92-28.256,35.152V184.312z M441.356,55.512c12.926,16.198,20.699,35.9,22.312,56.56h-39.84
		c-0.447-16.041-2.751-31.977-6.864-47.488c8.385-2.307,16.548-5.356,24.392-9.112V55.512z M400.38,24.336
		c1.272,0.536,2.536,1.088,3.784,1.672c1.912,0.896,3.784,1.872,5.6,2.88c1.16,0.64,2.328,1.248,3.464,1.928
		c1.96,1.168,3.856,2.4,5.736,3.744c0.944,0.648,1.912,1.256,2.84,1.944c2.4,1.776,4.728,3.688,6.984,5.68
		c0.328,0.296,0.688,0.544,1.016,0.848l0.144,0.144c-5.861,2.441-11.88,4.486-18.016,6.12c-3.414-9.123-7.984-17.769-13.6-25.728
		C399.06,23.832,399.732,24.072,400.38,24.336z M368.036,17.752c10.568,4.24,20.8,16.608,28.32,35.144
		c-9.362,1.626-18.824,2.607-28.32,2.936V17.752z M368.036,71.856c11.238-0.36,22.431-1.587,33.48-3.672
		c3.788,14.338,5.909,29.064,6.32,43.888h-39.8L368.036,71.856z M407.836,128.072c-0.434,14.822-2.581,29.544-6.4,43.872
		c-11.025-2.06-22.19-3.277-33.4-3.64v-40.232H407.836z M352.036,17.752v38.08c-9.497-0.336-18.959-1.325-28.32-2.96
		C331.236,34.36,341.468,21.992,352.036,17.752z M290.236,43.032c0.344-0.32,0.728-0.584,1.08-0.896
		c2.232-1.976,4.536-3.864,6.92-5.6c0.936-0.688,1.912-1.304,2.872-1.968c1.872-1.288,3.752-2.552,5.696-3.712
		c1.144-0.688,2.32-1.304,3.488-1.944c1.84-1.008,3.704-1.976,5.6-2.872c1.256-0.584,2.52-1.136,3.8-1.68
		c0.648-0.272,1.312-0.496,1.968-0.76c-5.609,7.96-10.18,16.603-13.6,25.72c-6.136-1.63-12.155-3.672-18.016-6.112L290.236,43.032z
		 M271.996,112.072c-1.135-1.506-2.358-2.943-3.664-4.304c-3.043-3.037-6.555-5.565-10.4-7.488
		c3.204-16.398,10.314-31.782,20.728-44.848c7.863,3.771,16.048,6.831,24.456,9.144c-4.117,15.514-6.423,31.452-6.872,47.496
		H271.996z M280.036,160.072v-24c-0.028-2.69-0.331-5.371-0.904-8h17.112c0.353,11.104,1.551,22.166,3.584,33.088
		c-1.149-0.683-2.455-1.057-3.792-1.088H280.036z M304.036,191.92c1.288-0.392,2.656-0.8,4.04-1.16
		c3.439,9.206,8.045,17.933,13.704,25.968c-2.832-1.128-5.6-2.4-8.344-3.768c-0.4-0.208-0.8-0.4-1.216-0.616
		c-2.784-1.44-5.528-2.984-8.184-4.696L304.036,191.92z"/>
	<path style="fill:#231F20;" d="M296.036,160.072h-16v-24c-0.015-7.002-1.863-13.878-5.36-19.944
		c-1.756-3.039-3.887-5.845-6.344-8.352c-15.615-15.627-40.941-15.638-56.569-0.023c-7.514,7.508-11.734,17.697-11.727,28.319v24
		h-16c-4.418,0-8,3.582-8,8v96c0,4.418,3.582,8,8,8h112c4.418,0,8-3.582,8-8v-96C304.036,163.654,300.454,160.072,296.036,160.072
		L296.036,160.072z M216.036,136.072c-0.015-13.255,10.718-24.012,23.972-24.028c6.323-0.007,12.393,2.481,16.892,6.924
		c1.503,1.528,2.807,3.24,3.88,5.096c2.131,3.643,3.255,7.787,3.256,12.008v24h-48L216.036,136.072z M288.036,256.072h-96v-80h96
		V256.072z"/>
</g>
<g>
</g>
<g>
</g>
<g>
</g>
<g>
</g>
<g>
</g>
<g>
</g>
<g>
</g>
<g>
</g>
<g>
</g>
<g>
</g>
<g>
</g>
<g>
</g>
<g>
</g>
<g>
</g>
<g>
</g>
</svg>
