<?xml version="1.0" encoding="iso-8859-1"?>
<!-- Generator: Adobe Illustrator 21.0.0, SVG Export Plug-In . SVG Version: 6.00 Build 0)  -->
<svg version="1.1" id="Capa_1" xmlns="http://www.w3.org/2000/svg" xmlns:xlink="http://www.w3.org/1999/xlink" x="0px" y="0px"
	 viewBox="0 0 512.001 512.001" style="enable-background:new 0 0 512.001 512.001;" xml:space="preserve">
<path style="fill:#EDEBED;" d="M448.388,135.758H63.612c-13.282,0-24.048,10.767-24.048,24.048v272.548h432.871V159.806
	C472.436,146.524,461.669,135.758,448.388,135.758z"/>
<rect x="71.629" y="167.819" style="fill:#FFE17D;" width="368.74" height="232.47"/>
<path style="fill:#DBD9DC;" d="M445.776,464.419H66.224c-6.93,0-13.704-2.051-19.47-5.895l-39.254-26.17h497l-39.254,26.169
	C459.48,462.368,452.706,464.419,445.776,464.419z"/>
<path style="fill:#FFD164;" d="M159.807,376.241c-35.417,0-64.129-28.712-64.129-64.129v-144.29H71.629V400.29h368.742v-24.048
	H159.807V376.241z"/>
<path style="fill:#6F6571;" d="M251.199,47.736c-38.346,2.482-67.343,36.034-67.343,74.46v61.658h32.065v-62.407
	c0-20.934,15.304-39.628,36.143-41.615c23.905-2.28,44.018,16.458,44.018,39.892v16.032h32.065v-16.032
	C328.146,78.291,293.217,45.016,251.199,47.736z"/>
<path style="fill:#C9C6CA;" d="M256.001,344.177L256.001,344.177c-53.126,0-96.194-43.067-96.194-96.193v-56.113
	c0-13.282,10.767-24.048,24.048-24.048h144.29c13.282,0,24.048,10.767,24.048,24.048v56.113
	C352.194,301.11,309.127,344.177,256.001,344.177z"/>
<path style="fill:#B7B2B8;" d="M280.049,336.161c-53.126,0-96.194-43.068-96.194-96.194v-72.145
	c-13.282,0-24.048,10.767-24.048,24.048v56.113c0,53.126,43.067,96.194,96.194,96.194c15.077,0,29.287-3.567,41.989-9.75
	C292.171,335.526,286.187,336.161,280.049,336.161z"/>
<g>
	<rect x="183.85" y="143.779" style="fill:#5D5360;" width="32.06" height="24.05"/>
	<circle style="fill:#5D5360;" cx="255.999" cy="239.969" r="16.03"/>
</g>
<path d="M511.678,430.181c-0.958-3.163-3.873-5.327-7.178-5.327h-24.564V159.806c0-17.396-14.152-31.548-31.548-31.548h-88.18
	c-4.142,0-7.5,3.358-7.5,7.5s3.358,7.5,7.5,7.5h88.18c9.125,0,16.548,7.423,16.548,16.548v265.048H47.064V159.806
	c0-9.125,7.423-16.548,16.548-16.548h88.177c4.142,0,7.5-3.358,7.5-7.5s-3.358-7.5-7.5-7.5H63.612
	c-17.396,0-31.548,14.152-31.548,31.548v265.048H7.501c-3.305,0-6.22,2.164-7.178,5.327s0.268,6.581,3.018,8.414l38,25.333
	c7.842,5.228,16.968,7.991,26.393,7.991h376.535c9.425,0,18.551-2.763,26.393-7.991l38-25.333
	C511.411,436.762,512.635,433.344,511.678,430.181z M462.341,451.447c-5.37,3.58-11.619,5.472-18.073,5.472H67.732
	c-6.454,0-12.703-1.892-18.073-5.472l-17.389-11.593H479.73L462.341,451.447z"/>
<path d="M127.741,175.322c4.142,0,7.5-3.358,7.5-7.5s-3.358-7.5-7.5-7.5H71.628c-4.142,0-7.5,3.358-7.5,7.5V400.29
	c0,4.142,3.358,7.5,7.5,7.5h16.03c4.142,0,7.5-3.358,7.5-7.5s-3.358-7.5-7.5-7.5h-8.53V175.322H127.741z"/>
<path d="M119.728,392.79c-4.142,0-7.5,3.358-7.5,7.5s3.358,7.5,7.5,7.5h320.643c4.142,0,7.5-3.358,7.5-7.5V167.822
	c0-4.142-3.358-7.5-7.5-7.5h-56.113c-4.142,0-7.5,3.358-7.5,7.5s3.358,7.5,7.5,7.5h48.613V392.79L119.728,392.79L119.728,392.79z"/>
<path d="M152.307,191.871v56.113c0,57.177,46.517,103.693,103.693,103.693s103.693-46.517,103.693-103.693v-56.113
	c0-17.396-14.152-31.548-31.548-31.548H223.419v-40.597c0-17.965,14.616-32.581,32.581-32.581c17.965,0,32.581,14.616,32.581,32.581
	v8.016c0,8.556,6.96,15.517,15.516,15.517h16.032c8.556,0,15.516-6.961,15.516-15.517v-8.016c0-43.917-35.729-79.645-79.645-79.645
	s-79.645,35.729-79.645,79.645v41.505C162.568,164.606,152.307,177.059,152.307,191.871z M256.001,55.08
	c35.646,0,64.645,29,64.645,64.645v8.016c0,0.285-0.231,0.517-0.516,0.517h-16.032c-0.285,0-0.516-0.232-0.516-0.517v-8.016
	c0-26.236-21.345-47.581-47.581-47.581s-47.581,21.345-47.581,47.581v40.597h-17.064v-40.597
	C191.354,84.08,220.354,55.08,256.001,55.08z M167.307,191.871c0-9.125,7.423-16.548,16.548-16.548h144.29
	c9.125,0,16.548,7.423,16.548,16.548v56.113c0,48.906-39.788,88.693-88.693,88.693s-88.693-39.788-88.693-88.693L167.307,191.871
	L167.307,191.871z"/>
<path d="M248.501,262.267v17.781c0,4.142,3.358,7.5,7.5,7.5c4.142,0,7.5-3.358,7.5-7.5v-17.781
	c9.308-3.139,16.032-11.946,16.032-22.3c0-12.976-10.557-23.532-23.532-23.532c-12.975,0-23.532,10.557-23.532,23.532
	C232.467,250.321,239.191,259.127,248.501,262.267z M256.001,231.435c4.705,0,8.532,3.828,8.532,8.532s-3.828,8.532-8.532,8.532
	c-4.704,0-8.532-3.828-8.532-8.532S251.296,231.435,256.001,231.435z"/>
<g>
</g>
<g>
</g>
<g>
</g>
<g>
</g>
<g>
</g>
<g>
</g>
<g>
</g>
<g>
</g>
<g>
</g>
<g>
</g>
<g>
</g>
<g>
</g>
<g>
</g>
<g>
</g>
<g>
</g>
</svg>
